<?xml version="1.0" encoding="utf-8"?>
<!-- Generator: Adobe Illustrator 25.0.1, SVG Export Plug-In . SVG Version: 6.00 Build 0)  -->
<svg version="1.1" id="Layer_1" xmlns="http://www.w3.org/2000/svg" xmlns:xlink="http://www.w3.org/1999/xlink" x="0px" y="0px"
	 viewBox="0 0 3000 1500" style="enable-background:new 0 0 3000 1500;" xml:space="preserve">
<style type="text/css">
	.st0{stroke:#000000;stroke-miterlimit:10;}
</style>
<rect x="76.88" y="951.22" class="st0" width="1057.68" height="129.67"/>
<path class="st0" d="M1437.12,637.23c-209.22,0-378.83,169.61-378.83,378.83s169.61,378.83,378.83,378.83
	s378.83-169.61,378.83-378.83S1646.34,637.23,1437.12,637.23z M1437.12,1291.1c-151.9,0-275.05-123.14-275.05-275.05
	s123.14-275.05,275.05-275.05c151.9,0,275.05,123.14,275.05,275.05S1589.02,1291.1,1437.12,1291.1z"/>
<path d="M149.82,967.72h254V741.98h100.37v548.15H403.82V1051.7h-254v238.43H49.45V741.98h100.37V967.72z"/>
<path d="M2199.1,1143.06c12.01-43.15,26.9-89.44,44.66-138.88l94.64-262.19h140.93v548.15h-100.37v-277.76
	c0-40.69,1.64-87.94,4.92-141.75h-3.69c-4.65,15.57-10.11,33.05-16.39,52.44c-6.29,19.4-12.84,38.51-19.66,57.36l-113.48,309.72
	h-64.73l-113.48-309.72c-6.83-18.85-13.39-37.96-19.66-57.36c-6.29-19.39-11.75-36.87-16.39-52.44h-3.69
	c3.28,50.53,4.92,97.64,4.92,141.34v278.17h-100.37V741.98h140.11l94.64,260.97c15.84,43.43,30.73,90.13,44.66,140.11H2199.1z"/>
<path d="M2680.98,1205.18h269.57v83.98h-369.94V741.01h355.19V825h-254.82v141.75h218.77v83.98h-218.77V1205.18z"/>
<g>
	<path d="M13.5,547.48V152.81h73.17v179.64h1.19L238.7,152.81h90.79L162.83,348.38l180.4,199.1h-93.78L87.87,369.32h-1.19v178.16
		H13.5z"/>
	<path d="M528.11,498.52c13.74,0,28.07-1.37,43.01-4.13c14.93-2.75,30.06-6.68,45.4-11.8v55.75c-9.16,3.94-23.2,7.67-42.11,11.21
		c-18.92,3.54-38.53,5.31-58.84,5.31c-20.51,0-39.97-2.61-58.39-7.82c-18.42-5.21-34.5-13.61-48.23-25.22
		c-13.74-11.6-24.64-26.64-32.7-45.13c-8.06-18.48-12.1-40.9-12.1-67.25c0-25.96,3.78-48.67,11.35-68.14
		c7.56-19.47,17.72-35.59,30.46-48.37c12.74-12.78,27.33-22.37,43.75-28.76c16.43-6.39,33.4-9.59,50.92-9.59
		c18.32,0,35.19,2.76,50.62,8.26c15.43,5.51,28.77,14.16,40.02,25.96c11.25,11.8,20.01,26.99,26.28,45.57s9.41,40.56,9.41,65.93
		c-0.2,9.84-0.5,18.19-0.9,25.07H436.42c0.99,13.18,3.98,24.44,8.96,33.77c4.97,9.34,11.5,16.91,19.56,22.71
		c8.06,5.8,17.47,10.03,28.22,12.68S515.56,498.52,528.11,498.52z M499.73,309.15c-8.96,0-16.93,1.62-23.89,4.87
		c-6.97,3.24-12.99,7.67-18.07,13.27c-5.08,5.6-9.11,12.14-12.1,19.62c-2.99,7.48-4.98,15.44-5.97,23.89h113.79
		c0-8.45-1.15-16.42-3.43-23.89c-2.29-7.47-5.67-14.01-10.15-19.62s-10.06-10.03-16.73-13.27
		C516.5,310.77,508.69,309.15,499.73,309.15z"/>
	<path d="M653.85,261.66h75.86l43.31,103.53c16.32,39.33,27.87,68.43,34.65,87.31h1.19c4.98-14.75,15.53-42.08,31.66-82l44.8-108.84
		h76.76L775.7,684.64h-69.89l66.3-153.09L653.85,261.66z"/>
	<path d="M1260.44,547.48h-73.17v-334.2h-129.02v-60.47h330.92v60.47h-128.73V547.48z"/>
	<path d="M1674.1,404.72c0,22.42-3.39,42.87-10.15,61.35c-6.77,18.49-16.48,34.32-29.12,47.49c-12.65,13.18-27.93,23.35-45.85,30.53
		c-17.92,7.18-37.93,10.77-60.03,10.77c-22.7,0-43.06-3.59-61.08-10.77c-18.02-7.18-33.3-17.35-45.85-30.53
		c-12.54-13.17-22.15-29-28.82-47.49c-6.67-18.48-10.01-38.94-10.01-61.35c0-22.42,3.38-42.87,10.15-61.35
		c6.77-18.48,16.47-34.31,29.12-47.49c12.64-13.17,27.93-23.35,45.85-30.53c17.92-7.18,37.93-10.77,60.03-10.77
		c22.7,0,43.05,3.59,61.08,10.77c18.02,7.18,33.3,17.36,45.84,30.53c12.54,13.18,22.15,29.01,28.82,47.49
		C1670.76,361.85,1674.1,382.3,1674.1,404.72z M1600.92,404.72c0-15.14-1.79-28.51-5.38-40.12c-3.58-11.6-8.56-21.33-14.93-29.2
		c-6.37-7.86-14.04-13.76-23-17.7c-8.96-3.93-18.72-5.9-29.27-5.9c-10.36,0-19.96,1.97-28.82,5.9c-8.86,3.94-16.48,9.84-22.85,17.7
		c-6.37,7.87-11.35,17.6-14.93,29.2c-3.58,11.61-5.38,24.98-5.38,40.12c0,15.15,1.79,28.52,5.38,40.12
		c3.58,11.61,8.61,21.29,15.08,29.05c6.47,7.77,14.14,13.67,23,17.7c8.86,4.03,18.56,6.05,29.12,6.05c10.55,0,20.21-2.01,28.97-6.05
		c8.76-4.03,16.32-9.93,22.7-17.7c6.37-7.77,11.35-17.45,14.93-29.05C1599.13,433.23,1600.92,419.86,1600.92,404.72z"/>
	<path d="M1951.26,322.72l106.33-169.9h81.24L1987.4,388.49v158.99h-73.17V388.49L1762.8,152.81h81.24l106.33,169.9H1951.26z"/>
	<path d="M2411.81,404.72c0,22.42-3.39,42.87-10.15,61.35c-6.77,18.49-16.48,34.32-29.12,47.49
		c-12.65,13.18-27.93,23.35-45.85,30.53c-17.92,7.18-37.93,10.77-60.03,10.77c-22.7,0-43.06-3.59-61.08-10.77
		c-18.02-7.18-33.3-17.35-45.84-30.53c-12.54-13.17-22.15-29-28.82-47.49c-6.67-18.48-10-38.94-10-61.35
		c0-22.42,3.38-42.87,10.15-61.35c6.77-18.48,16.47-34.31,29.12-47.49c12.64-13.17,27.93-23.35,45.85-30.53
		c17.92-7.18,37.93-10.77,60.03-10.77c22.7,0,43.05,3.59,61.08,10.77c18.02,7.18,33.3,17.36,45.84,30.53
		c12.54,13.18,22.15,29.01,28.82,47.49C2408.47,361.85,2411.81,382.3,2411.81,404.72z M2338.63,404.72
		c0-15.14-1.79-28.51-5.38-40.12c-3.58-11.6-8.56-21.33-14.93-29.2c-6.37-7.86-14.04-13.76-23-17.7c-8.96-3.93-18.72-5.9-29.27-5.9
		c-10.36,0-19.96,1.97-28.82,5.9c-8.86,3.94-16.48,9.84-22.85,17.7c-6.38,7.87-11.35,17.6-14.93,29.2
		c-3.58,11.61-5.38,24.98-5.38,40.12c0,15.15,1.79,28.52,5.38,40.12c3.58,11.61,8.61,21.29,15.08,29.05
		c6.47,7.77,14.14,13.67,23,17.7c8.86,4.03,18.56,6.05,29.12,6.05c10.55,0,20.21-2.01,28.97-6.05c8.76-4.03,16.32-9.93,22.7-17.7
		c6.37-7.77,11.35-17.45,14.93-29.05C2336.84,433.23,2338.63,419.86,2338.63,404.72z"/>
	<path d="M2602.36,554.86c-29.07,0-53.16-4.87-72.28-14.6c-19.11-9.73-33.55-22.86-43.31-39.38c-5.18-8.85-9.01-18.58-11.5-29.2
		c-2.49-10.62-3.73-22.42-3.73-35.4V261.66h70.78V428.9c0,9.64,0.7,17.95,2.09,24.92c1.39,6.98,3.48,13.03,6.27,18.14
		c4.78,8.66,11.54,15.09,20.31,19.32c8.76,4.23,19.21,6.34,31.36,6.34c12.74,0,23.64-2.36,32.71-7.08
		c9.06-4.72,15.88-11.9,20.46-21.53c4.58-9.24,6.87-22.12,6.87-38.64V261.66h70.78v174.62c0,23.21-4.08,42.77-12.25,58.7
		c-4.58,9.05-10.5,17.26-17.77,24.63c-7.27,7.37-15.83,13.67-25.69,18.88c-9.86,5.21-21.01,9.24-33.45,12.09
		C2631.57,553.43,2617.69,554.86,2602.36,554.86z"/>
	<path d="M2979.87,317.11h-5.97c-21.7,0-40.77,3.2-57.19,9.59c-16.43,6.39-29.12,16.18-38.08,29.35v191.44h-70.78V261.66h58.54
		l6.57,39.82h1.19c8.36-14.55,19.86-26,34.5-34.36c14.63-8.36,32.21-12.54,52.71-12.54c7.17,0,13.34,0.4,18.52,1.18V317.11z"/>
</g>
<g>
</g>
<g>
</g>
<g>
</g>
<g>
</g>
<g>
</g>
<g>
</g>
</svg>
